HIERARCHY
ROOT mixamorig:Hips
{
	OFFSET -0.000008 104.274872 1.554316
	CHANNELS 6 Xposition Yposition Zposition Xrotation Yrotation Zrotation
	JOINT mixamorig:Spine
	{
		OFFSET -0.000005 10.181595 0.131519
		CHANNELS 6 Xposition Yposition Zposition Xrotation Yrotation Zrotation
		JOINT mixamorig:Spine1
		{
			OFFSET -0.000000 9.893959 -1.470707
			CHANNELS 6 Xposition Yposition Zposition Xrotation Yrotation Zrotation
			JOINT mixamorig:Spine2
			{
				OFFSET -0.000000 9.220757 -1.370641
				CHANNELS 6 Xposition Yposition Zposition Xrotation Yrotation Zrotation
				JOINT mixamorig:Neck
				{
					OFFSET 0.000001 16.740417 -2.049036
					CHANNELS 6 Xposition Yposition Zposition Xrotation Yrotation Zrotation
					JOINT mixamorig:Head
					{
						OFFSET 0.000000 9.617874 1.685006
						CHANNELS 6 Xposition Yposition Zposition Xrotation Yrotation Zrotation
						JOINT mixamorig:HeadTop_End
						{
							OFFSET 0.000002 22.037354 7.501101
							CHANNELS 6 Xposition Yposition Zposition Xrotation Yrotation Zrotation
							End Site
							{
								OFFSET 0.000168 2310.654297 -282.823242
							}
						}
					}
				}
				JOINT mixamorig:RightShoulder
				{
					OFFSET -4.569970 11.014908 -2.160885
					CHANNELS 6 Xposition Yposition Zposition Xrotation Yrotation Zrotation
					JOINT mixamorig:RightArm
					{
						OFFSET -10.592851 -0.524811 -2.232101
						CHANNELS 6 Xposition Yposition Zposition Xrotation Yrotation Zrotation
						JOINT mixamorig:RightForeArm
						{
							OFFSET -27.841511 0.000031 -0.000004
							CHANNELS 6 Xposition Yposition Zposition Xrotation Yrotation Zrotation
							JOINT mixamorig:RightHand
							{
								OFFSET -28.328831 -0.000015 0.000015
								CHANNELS 6 Xposition Yposition Zposition Xrotation Yrotation Zrotation
								JOINT mixamorig:RightHandThumb1
								{
									OFFSET -2.464806 -1.573990 2.681852
									CHANNELS 6 Xposition Yposition Zposition Xrotation Yrotation Zrotation
									JOINT mixamorig:RightHandThumb2
									{
										OFFSET -3.215179 -1.872803 1.924282
										CHANNELS 6 Xposition Yposition Zposition Xrotation Yrotation Zrotation
										JOINT mixamorig:RightHandThumb3
										{
											OFFSET -2.654831 -1.527969 1.512609
											CHANNELS 6 Xposition Yposition Zposition Xrotation Yrotation Zrotation
											JOINT mixamorig:RightHandThumb4
											{
												OFFSET -2.018814 -1.152008 1.108052
												CHANNELS 6 Xposition Yposition Zposition Xrotation Yrotation Zrotation
												End Site
												{
													OFFSET -188.809540 -114.533607 132.431396
												}
											}
										}
									}
								}
								JOINT mixamorig:RightHandIndex1
								{
									OFFSET -9.108284 -0.517868 2.259835
									CHANNELS 6 Xposition Yposition Zposition Xrotation Yrotation Zrotation
									JOINT mixamorig:RightHandIndex2
									{
										OFFSET -3.699989 0.000000 0.001215
										CHANNELS 6 Xposition Yposition Zposition Xrotation Yrotation Zrotation
										JOINT mixamorig:RightHandIndex3
										{
											OFFSET -2.850006 0.000031 -0.000522
											CHANNELS 6 Xposition Yposition Zposition Xrotation Yrotation Zrotation
											JOINT mixamorig:RightHandIndex4
											{
												OFFSET -2.772186 -0.000015 -0.000020
												CHANNELS 6 Xposition Yposition Zposition Xrotation Yrotation Zrotation
												End Site
												{
													OFFSET -277.218445 0.000000 -0.050231
												}
											}
										}
									}
								}
								JOINT mixamorig:RightHandMiddle1
								{
									OFFSET -9.532516 -0.000031 -0.000023
									CHANNELS 6 Xposition Yposition Zposition Xrotation Yrotation Zrotation
									JOINT mixamorig:RightHandMiddle2
									{
										OFFSET -3.700005 -0.000015 0.003713
										CHANNELS 6 Xposition Yposition Zposition Xrotation Yrotation Zrotation
										JOINT mixamorig:RightHandMiddle3
										{
											OFFSET -2.949974 0.000015 -0.002054
											CHANNELS 6 Xposition Yposition Zposition Xrotation Yrotation Zrotation
											JOINT mixamorig:RightHandMiddle4
											{
												OFFSET -2.946640 0.000000 -0.000156
												CHANNELS 6 Xposition Yposition Zposition Xrotation Yrotation Zrotation
												End Site
												{
													OFFSET -294.664337 0.000000 -0.113670
												}
											}
										}
									}
								}
								JOINT mixamorig:RightHandRing1
								{
									OFFSET -9.103600 -0.043076 -1.865134
									CHANNELS 6 Xposition Yposition Zposition Xrotation Yrotation Zrotation
									JOINT mixamorig:RightHandRing2
									{
										OFFSET -3.379288 0.000000 -0.001055
										CHANNELS 6 Xposition Yposition Zposition Xrotation Yrotation Zrotation
										JOINT mixamorig:RightHandRing3
										{
											OFFSET -2.889687 -0.000015 0.000379
											CHANNELS 6 Xposition Yposition Zposition Xrotation Yrotation Zrotation
											JOINT mixamorig:RightHandRing4
											{
												OFFSET -2.638809 -0.000015 0.000941
												CHANNELS 6 Xposition Yposition Zposition Xrotation Yrotation Zrotation
												End Site
												{
													OFFSET -263.880371 0.000000 0.516020
												}
											}
										}
									}
								}
								JOINT mixamorig:RightHandPinky1
								{
									OFFSET -8.076683 -0.486710 -3.806280
									CHANNELS 6 Xposition Yposition Zposition Xrotation Yrotation Zrotation
									JOINT mixamorig:RightHandPinky2
									{
										OFFSET -3.600014 -0.000015 -0.003747
										CHANNELS 6 Xposition Yposition Zposition Xrotation Yrotation Zrotation
										JOINT mixamorig:RightHandPinky3
										{
											OFFSET -2.099983 0.000000 -0.005739
											CHANNELS 6 Xposition Yposition Zposition Xrotation Yrotation Zrotation
											JOINT mixamorig:RightHandPinky4
											{
												OFFSET -2.115768 -0.000031 -0.003680
												CHANNELS 6 Xposition Yposition Zposition Xrotation Yrotation Zrotation
												End Site
												{
													OFFSET -211.577087 0.000000 -0.350686
												}
											}
										}
									}
								}
							}
						}
					}
				}
				JOINT mixamorig:LeftShoulder
				{
					OFFSET 4.570447 11.014725 -2.160855
					CHANNELS 6 Xposition Yposition Zposition Xrotation Yrotation Zrotation
					JOINT mixamorig:LeftArm
					{
						OFFSET 10.592371 -0.524597 -2.232119
						CHANNELS 6 Xposition Yposition Zposition Xrotation Yrotation Zrotation
						JOINT mixamorig:LeftForeArm
						{
							OFFSET 27.841532 -0.000031 0.000026
							CHANNELS 6 Xposition Yposition Zposition Xrotation Yrotation Zrotation
							JOINT mixamorig:LeftHand
							{
								OFFSET 28.328846 -0.000061 0.000022
								CHANNELS 6 Xposition Yposition Zposition Xrotation Yrotation Zrotation
								JOINT mixamorig:LeftHandThumb1
								{
									OFFSET 2.466141 -1.576172 2.681732
									CHANNELS 6 Xposition Yposition Zposition Xrotation Yrotation Zrotation
									JOINT mixamorig:LeftHandThumb2
									{
										OFFSET 3.217812 -1.872070 1.916482
										CHANNELS 6 Xposition Yposition Zposition Xrotation Yrotation Zrotation
										JOINT mixamorig:LeftHandThumb3
										{
											OFFSET 2.656029 -1.528778 1.514513
											CHANNELS 6 Xposition Yposition Zposition Xrotation Yrotation Zrotation
											JOINT mixamorig:LeftHandThumb4
											{
												OFFSET 2.020889 -1.154053 1.115139
												CHANNELS 6 Xposition Yposition Zposition Xrotation Yrotation Zrotation
												End Site
												{
													OFFSET 190.885437 -115.081749 130.048782
												}
											}
										}
									}
								}
								JOINT mixamorig:LeftHandIndex1
								{
									OFFSET 9.109314 -0.518021 2.259871
									CHANNELS 6 Xposition Yposition Zposition Xrotation Yrotation Zrotation
									JOINT mixamorig:LeftHandIndex2
									{
										OFFSET 3.699989 0.000000 -0.000322
										CHANNELS 6 Xposition Yposition Zposition Xrotation Yrotation Zrotation
										JOINT mixamorig:LeftHandIndex3
										{
											OFFSET 2.850006 0.000000 0.000352
											CHANNELS 6 Xposition Yposition Zposition Xrotation Yrotation Zrotation
											JOINT mixamorig:LeftHandIndex4
											{
												OFFSET 2.774864 -0.000031 -0.000027
												CHANNELS 6 Xposition Yposition Zposition Xrotation Yrotation Zrotation
												End Site
												{
													OFFSET 277.486267 0.000000 -0.009857
												}
											}
										}
									}
								}
								JOINT mixamorig:LeftHandMiddle1
								{
									OFFSET 9.533394 0.000061 0.000044
									CHANNELS 6 Xposition Yposition Zposition Xrotation Yrotation Zrotation
									JOINT mixamorig:LeftHandMiddle2
									{
										OFFSET 3.699989 -0.000015 -0.000231
										CHANNELS 6 Xposition Yposition Zposition Xrotation Yrotation Zrotation
										JOINT mixamorig:LeftHandMiddle3
										{
											OFFSET 2.949997 -0.000015 -0.000059
											CHANNELS 6 Xposition Yposition Zposition Xrotation Yrotation Zrotation
											JOINT mixamorig:LeftHandMiddle4
											{
												OFFSET 2.952896 0.000031 0.000063
												CHANNELS 6 Xposition Yposition Zposition Xrotation Yrotation Zrotation
												End Site
												{
													OFFSET 295.289337 0.000000 0.022810
												}
											}
										}
									}
								}
								JOINT mixamorig:LeftHandRing1
								{
									OFFSET 9.104523 -0.042999 -1.865074
									CHANNELS 6 Xposition Yposition Zposition Xrotation Yrotation Zrotation
									JOINT mixamorig:LeftHandRing2
									{
										OFFSET 3.150009 -0.000031 0.000043
										CHANNELS 6 Xposition Yposition Zposition Xrotation Yrotation Zrotation
										JOINT mixamorig:LeftHandRing3
										{
											OFFSET 2.949982 -0.000015 0.000040
											CHANNELS 6 Xposition Yposition Zposition Xrotation Yrotation Zrotation
											JOINT mixamorig:LeftHandRing4
											{
												OFFSET 2.644348 0.000000 0.000057
												CHANNELS 6 Xposition Yposition Zposition Xrotation Yrotation Zrotation
												End Site
												{
													OFFSET 264.434631 0.000000 0.012105
												}
											}
										}
									}
								}
								JOINT mixamorig:LeftHandPinky1
								{
									OFFSET 8.077789 -0.486847 -3.806259
									CHANNELS 6 Xposition Yposition Zposition Xrotation Yrotation Zrotation
									JOINT mixamorig:LeftHandPinky2
									{
										OFFSET 3.599953 0.000031 0.014727
										CHANNELS 6 Xposition Yposition Zposition Xrotation Yrotation Zrotation
										JOINT mixamorig:LeftHandPinky3
										{
											OFFSET 2.100021 0.000015 0.007705
											CHANNELS 6 Xposition Yposition Zposition Xrotation Yrotation Zrotation
											JOINT mixamorig:LeftHandPinky4
											{
												OFFSET 2.125504 0.000031 0.007517
												CHANNELS 6 Xposition Yposition Zposition Xrotation Yrotation Zrotation
												End Site
												{
													OFFSET 212.550781 0.000000 0.625752
												}
											}
										}
									}
								}
							}
						}
					}
				}
			}
		}
	}
	JOINT mixamorig:RightUpLeg
	{
		OFFSET -8.207787 -6.751648 -1.599560
		CHANNELS 6 Xposition Yposition Zposition Xrotation Yrotation Zrotation
		JOINT mixamorig:RightLeg
		{
			OFFSET -0.000002 -44.370117 0.345942
			CHANNELS 6 Xposition Yposition Zposition Xrotation Yrotation Zrotation
			JOINT mixamorig:RightFoot
			{
				OFFSET 0.000003 -44.423679 -3.043532
				CHANNELS 6 Xposition Yposition Zposition Xrotation Yrotation Zrotation
				JOINT mixamorig:RightToeBase
				{
					OFFSET -0.000002 -8.728671 10.710558
					CHANNELS 6 Xposition Yposition Zposition Xrotation Yrotation Zrotation
					JOINT mixamorig:RightToe_End
					{
						OFFSET -0.000001 -0.000679 9.278119
						CHANNELS 6 Xposition Yposition Zposition Xrotation Yrotation Zrotation
						End Site
						{
							OFFSET 0.000000 -0.067690 927.812134
						}
					}
				}
			}
		}
	}
	JOINT mixamorig:LeftUpLeg
	{
		OFFSET 8.207793 -6.751686 -1.599556
		CHANNELS 6 Xposition Yposition Zposition Xrotation Yrotation Zrotation
		JOINT mixamorig:LeftLeg
		{
			OFFSET -0.000004 -44.370014 0.346954
			CHANNELS 6 Xposition Yposition Zposition Xrotation Yrotation Zrotation
			JOINT mixamorig:LeftFoot
			{
				OFFSET -0.000001 -44.423672 -3.044401
				CHANNELS 6 Xposition Yposition Zposition Xrotation Yrotation Zrotation
				JOINT mixamorig:LeftToeBase
				{
					OFFSET -0.000002 -8.728669 10.710558
					CHANNELS 6 Xposition Yposition Zposition Xrotation Yrotation Zrotation
					JOINT mixamorig:LeftToe_End
					{
						OFFSET -0.000003 -0.000679 9.278133
						CHANNELS 6 Xposition Yposition Zposition Xrotation Yrotation Zrotation
						End Site
						{
							OFFSET 0.000000 -0.068021 927.813477
						}
					}
				}
			}
		}
	}
}
MOTION
Frames: 3
Frame Time: 0.033333
0.000006 104.270477 1.554256 0.000010 0.000003 -0.000113 -0.000005 10.181587 0.131522 0.000001 -0.000003 0.000084 -0.000000 9.893967 -1.470711 0.000001 0.000000 -0.000000 -0.000000 9.220802 -1.370642 0.000000 -0.000000 -0.000000 0.000001 16.740433 -2.049030 0.000000 -0.000000 -0.000000 0.000000 9.617859 1.685014 0.000000 0.000000 0.000000 0.000002 22.037384 7.501101 0.000000 -0.000000 0.000000 -4.569968 11.014880 -2.160881 0.000008 0.000001 -0.000038 -10.592880 -0.524759 -2.231904 74.141553 28.490124 -21.715115 -27.841520 0.000009 0.000537 -53.334318 107.774846 69.087862 -28.328808 0.000007 0.000021 -0.000319 -0.000042 0.000004 -2.464432 -1.573957 2.682384 -25.891770 -149.407096 31.998582 -3.215247 -1.872512 1.924621 150.045732 34.277950 28.445709 -2.654963 -1.527908 1.513090 149.451451 26.639194 -35.352421 -2.018831 -1.152001 1.108065 -0.000002 -0.000004 0.000004 -9.108375 -0.517564 2.260174 108.129217 16.235670 -22.330122 -3.700057 0.000327 0.001545 106.083397 10.189146 -13.484652 -2.850080 0.000380 -0.000212 106.771867 6.910619 -9.290082 -2.772169 -0.000001 -0.000019 -0.000000 -0.000001 -0.000001 -9.532587 0.000273 0.000289 102.501141 16.135659 -20.209003 -3.700046 0.000350 0.004007 100.863384 9.061093 -10.844324 -2.950024 0.000357 -0.001786 101.368074 7.822498 -9.536254 -2.946620 0.000014 -0.000156 -0.000001 -0.000001 0.000001 -9.103697 -0.042756 -1.864834 102.643140 17.439568 -21.636279 -3.379324 0.000330 -0.000769 101.191138 8.147296 -9.929803 -2.889721 0.000380 0.000685 105.560396 4.428206 -5.885572 -2.638807 -0.000003 0.000939 -0.000001 0.000001 0.000002 -8.076748 -0.486388 -3.805984 91.564874 18.081614 -18.417839 -3.600038 0.000286 -0.003499 94.755160 8.633494 -8.991905 -2.100008 0.000326 -0.005463 99.106427 4.720689 -5.282517 -2.115777 -0.000056 -0.003680 -0.000000 -0.000000 -0.000003 4.570446 11.014691 -2.160851 -0.000018 0.000010 -0.000021 10.592419 -0.524465 -2.232369 74.043567 -19.011056 14.394125 27.841820 0.000053 -0.000198 93.266547 -73.153915 76.306518 28.328840 -0.000028 0.000026 0.000023 -0.000088 -0.000000 2.466024 -1.576181 2.681909 -32.234846 153.364781 -21.859192 3.217772 -1.871698 1.916363 153.886566 -33.680698 -17.424320 2.656116 -1.528642 1.514456 139.863805 -27.998168 42.382768 2.020898 -1.154087 1.115148 0.000002 0.000004 0.000006 9.109381 -0.517822 2.259724 92.981592 -13.157898 13.841765 3.700049 0.000177 -0.000455 90.913718 -11.580578 11.782351 2.850058 0.000206 0.000196 90.631331 -10.811066 10.928837 2.774864 -0.000045 -0.000030 0.000005 -0.000000 -0.000000 9.533466 0.000237 -0.000097 93.238147 -11.418263 12.068840 3.700052 0.000201 -0.000377 94.750078 -10.776615 11.700164 2.950066 0.000191 -0.000203 95.907556 -15.767934 17.461867 2.952866 -0.000032 0.000064 0.000000 0.000000 -0.000000 9.104580 -0.042820 -1.865231 92.005032 -10.769754 11.152919 3.150028 0.000224 -0.000088 98.421503 -11.600296 13.430565 2.950052 0.000193 -0.000062 102.104607 -15.305933 18.879614 2.644318 0.000032 0.000058 -0.000005 0.000000 -0.000000 8.077841 -0.486716 -3.806407 75.430540 -14.298835 11.529421 3.600015 0.000171 0.014563 78.880700 -12.642450 10.831766 2.100055 0.000187 0.007557 83.689440 -13.074991 12.156910 2.125497 -0.000030 0.007513 0.000000 0.000001 -0.000000 -8.207786 -6.751667 -1.599560 -0.077001 -0.000003 0.000080 -0.000002 -44.370110 0.345938 0.153719 -0.000000 -0.000000 0.000000 -44.423679 -3.043532 -0.076700 0.000000 -0.000002 -0.000006 -8.728667 10.710559 -0.000009 -0.000000 -0.000000 -0.000001 -0.000679 9.278123 0.000000 -0.000000 -0.000000 8.207792 -6.751710 -1.599556 -0.074518 -0.000003 0.000081 -0.000002 -44.370014 0.346960 0.148822 0.000002 0.000000 -0.000001 -44.423664 -3.044403 -0.074314 0.000000 -0.000002 -0.000004 -8.728671 10.710558 0.000007 -0.000000 -0.000000 0.000000 -0.000680 9.278137 -0.000000 0.000000 -0.000001 
0.000006 104.270477 1.554256 0.000010 0.000003 -0.000113 -0.000005 10.181587 0.131522 0.000001 -0.000003 0.000084 -0.000000 9.893967 -1.470711 0.000001 0.000000 -0.000000 -0.000000 9.220802 -1.370642 0.000000 -0.000000 -0.000000 0.000001 16.740433 -2.049030 0.000000 -0.000000 -0.000000 0.000000 9.617859 1.685014 0.000000 0.000000 0.000000 0.000002 22.037384 7.501101 0.000000 -0.000000 0.000000 -4.569968 11.014880 -2.160881 0.000008 0.000001 -0.000038 -10.592859 -0.524804 -2.231840 74.099411 40.516149 -31.138218 -27.841522 0.000006 0.000558 -51.401849 104.405835 63.642221 -28.328833 -0.000007 0.000030 -0.000323 -0.000048 0.000012 -2.464399 -1.573939 2.682355 -30.061811 -147.871314 23.540891 -3.215262 -1.872502 1.924605 150.615903 33.954936 24.886187 -2.654951 -1.527884 1.513064 147.119488 27.387407 -32.022782 -2.018822 -1.152000 1.108071 -0.000001 -0.000003 0.000000 -9.108376 -0.517562 2.260180 111.170911 15.696138 -22.819175 -3.700067 0.000315 0.001563 106.894660 11.345258 -15.231117 -2.850077 0.000369 -0.000208 105.258099 8.908420 -11.646081 -2.772161 -0.000014 -0.000019 -0.000004 0.000001 -0.000001 -9.532597 0.000274 0.000290 102.417614 16.478152 -20.601418 -3.700059 0.000318 0.004010 101.844145 10.314940 -12.570811 -2.950060 0.000340 -0.001748 104.187917 10.091847 -12.930116 -2.946616 0.000001 -0.000155 0.000001 0.000002 -0.000000 -9.103692 -0.042770 -1.864837 100.678341 18.045706 -21.631580 -3.379341 0.000324 -0.000773 102.878720 8.820294 -11.073605 -2.889756 0.000356 0.000692 109.612023 6.732229 -9.599186 -2.638802 -0.000000 0.000936 -0.000001 -0.000002 0.000000 -8.076757 -0.486400 -3.806003 89.782263 20.911736 -20.679248 -3.600050 0.000284 -0.003504 92.102205 10.460261 -10.471538 -2.100026 0.000325 -0.005455 98.010599 5.924680 -6.561515 -2.115769 -0.000039 -0.003679 0.000000 -0.000001 -0.000003 4.570446 11.014691 -2.160851 -0.000018 0.000010 -0.000021 10.592422 -0.524472 -2.232372 72.966303 -20.667389 15.359034 27.841818 0.000059 -0.000222 96.037617 -76.134882 82.071908 28.328833 -0.000028 0.000022 0.000028 -0.000088 -0.000000 2.466200 -1.576121 2.681859 -2.124565 160.878795 -80.402801 3.217808 -1.871741 1.916383 166.312361 -30.443246 6.723282 2.656105 -1.528661 1.514487 140.678715 -27.164258 55.564815 2.020887 -1.154075 1.115146 0.000002 0.000002 0.000004 9.109382 -0.517833 2.259738 93.376411 -17.014338 18.018025 3.700030 0.000188 -0.000476 92.267994 -9.761042 10.170184 2.850021 0.000214 0.000193 90.728189 -6.667803 6.751662 2.774877 -0.000044 -0.000027 0.000004 -0.000001 0.000001 9.533475 0.000233 -0.000094 94.714028 -16.265465 17.631235 3.700021 0.000212 -0.000375 95.881690 -8.098445 8.969347 2.950048 0.000214 -0.000195 96.143198 -9.178273 10.217067 2.952877 -0.000017 0.000063 0.000000 0.000000 -0.000002 9.104586 -0.042834 -1.865207 92.416756 -15.538373 16.201325 3.150041 0.000226 -0.000103 98.494852 -10.631703 12.327419 2.950020 0.000200 -0.000071 99.937737 -10.634730 12.646958 2.644318 0.000031 0.000056 -0.000000 -0.000000 -0.000000 8.077849 -0.486720 -3.806401 80.343966 -18.684524 16.323916 3.600009 0.000185 0.014569 82.112083 -17.162722 15.439658 2.100051 0.000167 0.007562 84.453937 -13.684122 12.876925 2.125508 0.000003 0.007514 -0.000000 0.000001 -0.000002 -8.207786 -6.751667 -1.599560 -0.077001 -0.000003 0.000080 -0.000002 -44.370110 0.345938 0.153719 -0.000000 -0.000000 0.000000 -44.423679 -3.043532 -0.076700 0.000000 -0.000002 -0.000006 -8.728667 10.710559 -0.000009 -0.000000 -0.000000 -0.000001 -0.000679 9.278123 0.000000 -0.000000 -0.000000 8.207792 -6.751710 -1.599556 -0.074518 -0.000003 0.000081 -0.000002 -44.370014 0.346960 0.148822 0.000002 0.000000 -0.000001 -44.423664 -3.044403 -0.074314 0.000000 -0.000002 -0.000004 -8.728671 10.710558 0.000007 -0.000000 -0.000000 0.000000 -0.000680 9.278137 -0.000000 0.000000 -0.000001 
0.000006 104.270477 1.554256 0.000010 0.000003 -0.000113 -0.000005 10.181587 0.131522 0.000001 -0.000003 0.000084 -0.000000 9.893967 -1.470711 0.000001 0.000000 -0.000000 -0.000000 9.220802 -1.370642 0.000000 -0.000000 -0.000000 0.000001 16.740433 -2.049030 0.000000 -0.000000 -0.000000 0.000000 9.617859 1.685014 0.000000 0.000000 0.000000 0.000002 22.037384 7.501101 0.000000 -0.000000 0.000000 -4.569968 11.014880 -2.160881 0.000008 0.000001 -0.000038 -10.592865 -0.524786 -2.231858 74.188395 38.645644 -29.698694 -27.841530 -0.000006 0.000554 -51.157973 103.930699 62.925303 -28.328821 0.000011 0.000037 -0.000320 -0.000047 0.000007 -2.464401 -1.573920 2.682350 -32.364763 -148.529744 19.599535 -3.215243 -1.872516 1.924609 149.142358 34.063478 28.997940 -2.654964 -1.527862 1.513076 147.283863 27.377732 -31.854865 -2.018830 -1.152003 1.108056 -0.000002 -0.000003 0.000000 -9.108384 -0.517554 2.260161 109.900913 15.510267 -22.038654 -3.700049 0.000323 0.001556 107.281030 11.721804 -15.844686 -2.850070 0.000380 -0.000208 105.661886 9.336491 -12.292907 -2.772179 -0.000001 -0.000023 0.000001 -0.000001 -0.000000 -9.532581 0.000274 0.000282 102.285177 15.781985 -19.697721 -3.700056 0.000333 0.003999 101.738113 10.233624 -12.447834 -2.950049 0.000352 -0.001788 103.482127 10.161897 -12.856878 -2.946617 0.000000 -0.000155 -0.000000 -0.000000 0.000000 -9.103694 -0.042764 -1.864821 100.905567 17.300164 -20.824258 -3.379335 0.000309 -0.000765 102.254612 8.035192 -9.980138 -2.889746 0.000353 0.000711 109.024415 6.240345 -8.807673 -2.638803 -0.000014 0.000940 0.000001 -0.000002 0.000001 -8.076751 -0.486393 -3.805996 90.524254 20.117048 -20.142313 -3.600035 0.000288 -0.003499 92.177521 9.359996 -9.348071 -2.100017 0.000327 -0.005442 98.102683 5.163296 -5.698082 -2.115772 -0.000051 -0.003680 0.000001 0.000001 -0.000005 4.570446 11.014691 -2.160851 -0.000018 0.000010 -0.000021 10.592432 -0.524473 -2.232382 72.153592 -24.408525 17.910621 27.841820 0.000037 -0.000192 98.043117 -76.719601 84.676539 28.328835 -0.000030 0.000023 0.000020 -0.000087 -0.000001 2.466211 -1.576103 2.681856 0.201647 161.493594 -84.190442 3.217809 -1.871746 1.916389 166.238253 -29.980207 8.521041 2.656111 -1.528669 1.514487 139.976708 -27.421241 55.366087 2.020883 -1.154078 1.115151 0.000003 0.000001 0.000006 9.109381 -0.517845 2.259733 93.153870 -17.000640 17.934760 3.700036 0.000188 -0.000474 92.270187 -9.894418 10.309283 2.850010 0.000213 0.000189 90.673131 -6.744039 6.822320 2.774862 -0.000029 -0.000026 0.000002 -0.000001 0.000001 9.533459 0.000245 -0.000082 94.500605 -16.265744 17.566787 3.700049 0.000212 -0.000381 95.513338 -8.115447 8.930522 2.950047 0.000211 -0.000208 95.949821 -9.123677 10.122135 2.952877 -0.000016 0.000065 -0.000001 0.000000 0.000001 9.104579 -0.042834 -1.865222 91.707140 -15.600639 16.068454 3.150049 0.000235 -0.000095 98.444322 -10.253668 11.879454 2.950006 0.000220 -0.000073 100.251652 -10.225786 12.229151 2.644332 0.000046 0.000060 0.000000 -0.000000 0.000000 8.077842 -0.486724 -3.806417 79.313045 -18.072489 15.518089 3.600016 0.000168 0.014584 81.919424 -16.329536 14.657110 2.100062 0.000183 0.007549 84.636747 -13.204375 12.477679 2.125511 0.000000 0.007516 -0.000000 0.000000 0.000000 -8.207786 -6.751667 -1.599560 -0.077001 -0.000003 0.000080 -0.000002 -44.370110 0.345938 0.153719 -0.000000 -0.000000 0.000000 -44.423679 -3.043532 -0.076700 0.000000 -0.000002 -0.000006 -8.728667 10.710559 -0.000009 -0.000000 -0.000000 -0.000001 -0.000679 9.278123 0.000000 -0.000000 -0.000000 8.207792 -6.751710 -1.599556 -0.074518 -0.000003 0.000081 -0.000002 -44.370014 0.346960 0.148822 0.000002 0.000000 -0.000001 -44.423664 -3.044403 -0.074314 0.000000 -0.000002 -0.000004 -8.728671 10.710558 0.000007 -0.000000 -0.000000 0.000000 -0.000680 9.278137 -0.000000 0.000000 -0.000001 
